<?xml version="1.0"?>
<svg width="84" height="25" xmlns="http://www.w3.org/2000/svg" xmlns:svg="http://www.w3.org/2000/svg">
 <g class="layer">
  <title>Layer 1</title>
  <path d="m0.18,24l0,-22.4l4.09,0l0,19.2l9.92,0l0,3.2l-14.01,0zm24.3,0.38c-1.64,0 -3.09,-0.27 -4.35,-0.83c-1.26,-0.57 -2.25,-1.38 -2.98,-2.43c-0.72,-1.07 -1.1,-2.36 -1.12,-3.87l4.32,0c0.04,1.04 0.42,1.93 1.12,2.65c0.73,0.71 1.72,1.06 2.98,1.06c1.09,0 1.95,-0.26 2.59,-0.77c0.64,-0.53 0.96,-1.24 0.96,-2.11c0,-0.92 -0.29,-1.63 -0.86,-2.14c-0.56,-0.52 -1.31,-0.93 -2.24,-1.25c-0.94,-0.32 -1.95,-0.66 -3.01,-1.03c-1.73,-0.59 -3.05,-1.36 -3.97,-2.3c-0.9,-0.94 -1.34,-2.19 -1.34,-3.74c-0.03,-1.33 0.28,-2.46 0.92,-3.4c0.67,-0.96 1.56,-1.69 2.69,-2.2c1.13,-0.54 2.43,-0.8 3.91,-0.8c1.49,0 2.8,0.26 3.93,0.8c1.15,0.53 2.05,1.28 2.69,2.24c0.66,0.96 1.01,2.1 1.06,3.42l-4.39,0c-0.02,-0.79 -0.33,-1.48 -0.93,-2.08c-0.57,-0.62 -1.38,-0.93 -2.43,-0.93c-0.89,-0.02 -1.65,0.2 -2.27,0.67c-0.6,0.45 -0.9,1.11 -0.9,1.99c0,0.74 0.24,1.34 0.71,1.79c0.47,0.43 1.11,0.79 1.92,1.09c0.81,0.3 1.74,0.62 2.78,0.96c1.11,0.38 2.12,0.83 3.04,1.34c0.92,0.51 1.66,1.2 2.21,2.05c0.55,0.83 0.83,1.91 0.83,3.23c0,1.18 -0.3,2.26 -0.89,3.27c-0.6,1 -1.49,1.81 -2.66,2.43c-1.17,0.6 -2.61,0.89 -4.32,0.89zm13.56,-18.72c-0.75,0 -1.37,-0.22 -1.86,-0.67c-0.47,-0.45 -0.7,-1.01 -0.7,-1.69c0,-0.69 0.23,-1.24 0.7,-1.67c0.49,-0.45 1.11,-0.67 1.86,-0.67c0.74,0 1.35,0.22 1.82,0.67c0.49,0.43 0.74,0.98 0.74,1.67c0,0.68 -0.25,1.24 -0.74,1.69c-0.47,0.45 -1.08,0.67 -1.82,0.67zm-2.05,18.34l0,-15.87l4.1,0l0,15.87l-4.1,0zm8.37,0l0,-23.04l4.1,0l0,23.04l-4.1,0zm12.57,0l-5.82,-15.87l4.28,0l4.04,12l4.03,-12l4.29,0l-5.86,15.87l-4.96,0zm17.9,0.38c-1.36,0 -2.48,-0.21 -3.36,-0.64c-0.87,-0.44 -1.52,-1.03 -1.95,-1.76c-0.43,-0.72 -0.64,-1.52 -0.64,-2.4c0,-1.47 0.58,-2.66 1.73,-3.58c1.15,-0.92 2.88,-1.38 5.18,-1.38l4.04,0l0,-0.38c0,-1.09 -0.31,-1.89 -0.93,-2.4c-0.62,-0.51 -1.39,-0.77 -2.31,-0.77c-0.83,0 -1.55,0.2 -2.17,0.61c-0.62,0.38 -1.01,0.96 -1.15,1.73l-4,0c0.1,-1.15 0.49,-2.16 1.15,-3.01c0.68,-0.85 1.55,-1.5 2.62,-1.95c1.07,-0.47 2.26,-0.71 3.59,-0.71c2.26,0 4.04,0.57 5.34,1.7c1.3,1.13 1.95,2.73 1.95,4.8l0,9.76l-3.49,0l-0.38,-2.56c-0.47,0.85 -1.13,1.56 -1.98,2.11c-0.84,0.56 -1.91,0.83 -3.24,0.83zm0.93,-3.2c1.17,0 2.08,-0.38 2.72,-1.15c0.66,-0.77 1.08,-1.72 1.25,-2.85l-3.49,0c-1.09,0 -1.87,0.21 -2.33,0.61c-0.47,0.39 -0.71,0.87 -0.71,1.44c0,0.62 0.24,1.1 0.71,1.44c0.46,0.34 1.08,0.51 1.85,0.51z" fill="#02073E" id="svg_1"/>
  <rect fill="#ffffff" height="79" id="svg_2" stroke="#000000" width="164" x="-39" y="-18.57">Thiago Andrade</rect>
  <text fill="#000000" font-family="Serif" font-size="62" font-weight="bold" id="svg_3" stroke="#000000" stroke-width="0" text-anchor="middle" transform="matrix(0.172824 0 0 0.234033 37.6254 6.60617)" x="22.47" xml:space="preserve" y="49.73">Thiago Andrade</text>
  <text fill="#000000" font-family="Serif" font-size="59" id="svg_4" stroke="#000000" stroke-width="0" text-anchor="middle" transform="matrix(1 0 0 1 0 0) matrix(0.330462 0 0 0.560591 -10.498 14.2673)" x="183.07" xml:space="preserve" y="17.53"/>
 </g>
</svg>